
<svg version="1.1" id="Layer_1" xmlns="http://www.w3.org/2000/svg" xmlns:xlink="http://www.w3.org/1999/xlink" x="0px" y="0px"
	 viewBox="0 0 60 60" enable-background="new 0 0 60 60" xml:space="preserve">
<g>
	<path fill="#444444" d="M28.5,47.6c0,1.1-0.4,2.1-1.2,2.9c-0.8,0.8-1.8,1.2-2.9,1.2c-1.1,0-2.1-0.4-2.9-1.2
		c-0.8-0.8-1.2-1.8-1.2-2.9c0-1.1,0.4-2.1,1.2-2.9c0.8-0.8,1.8-1.2,2.9-1.2c1.1,0,2.1,0.4,2.9,1.2C28.1,45.6,28.5,46.5,28.5,47.6z
		 M28.5,36.6c0,1.1-0.4,2.1-1.2,2.9c-0.8,0.8-1.8,1.2-2.9,1.2c-1.1,0-2.1-0.4-2.9-1.2c-0.8-0.8-1.2-1.8-1.2-2.9s0.4-2.1,1.2-2.9
		c0.8-0.8,1.8-1.2,2.9-1.2c1.1,0,2.1,0.4,2.9,1.2C28.1,34.6,28.5,35.5,28.5,36.6z M58.6,45.6v4.1c0,0.1,0,0.4-0.1,0.5
		c-0.1,0.1-0.3,0.1-0.5,0.1h-26c-0.1,0-0.4,0-0.5-0.1c-0.1-0.1-0.1-0.3-0.1-0.5v-4.1c0-0.1,0-0.4,0.1-0.5c0.1-0.1,0.3-0.1,0.5-0.1
		h26c0.1,0,0.4,0,0.5,0.1C58.6,45.1,58.6,45.4,58.6,45.6z M28.5,25.7c0,1.1-0.4,2.1-1.2,2.9s-1.8,1.2-2.9,1.2
		c-1.1,0-2.1-0.4-2.9-1.2c-0.8-0.8-1.2-1.8-1.2-2.9s0.4-2.1,1.2-2.9s1.8-1.2,2.9-1.2c1.1,0,2.1,0.4,2.9,1.2
		C28.1,23.6,28.5,24.6,28.5,25.7z M58.6,34.6v4.1c0,0.1,0,0.4-0.1,0.5c-0.1,0.1-0.3,0.1-0.5,0.1h-26c-0.1,0-0.4,0-0.5-0.1
		s-0.1-0.3-0.1-0.5v-4.1c0-0.1,0-0.4,0.1-0.5c0.1-0.1,0.3-0.1,0.5-0.1h26c0.1,0,0.4,0,0.5,0.1C58.6,34.2,58.6,34.5,58.6,34.6z
		 M58.6,23.6v4.1c0,0.1,0,0.4-0.1,0.5c-0.1,0.1-0.3,0.1-0.5,0.1h-26c-0.1,0-0.4,0-0.5-0.1s-0.1-0.3-0.1-0.5v-4.1
		c0-0.1,0-0.4,0.1-0.5c0.1-0.1,0.3-0.1,0.5-0.1h26c0.1,0,0.4,0,0.5,0.1C58.5,23.3,58.6,23.5,58.6,23.6z"/>
	<g>
		<path fill="#444444" d="M17.5,39.9c-0.8,0-1.6-0.3-2.2-1L2.8,26.5c-0.5-0.5-1-1.4-1-2.2s0.3-1.6,1-2.2l3.4-3.4
			c0.5-0.5,1.4-1,2.2-1c0.8,0,1.6,0.3,2.2,1l6.9,6.9L33.4,9.6c0.5-0.5,1.4-1,2.2-1c0.8,0,1.6,0.3,2.2,1l3.4,3.4c0.5,0.5,1,1.4,1,2.2
			c0,0.8-0.3,1.6-1,2.2L19.7,39C19,39.5,18.3,39.9,17.5,39.9z"/>
		<path fill="#666666" d="M35.6,9.4c0.7,0,1.2,0.3,1.6,0.7l3.6,3.4c0.4,0.4,0.7,1.1,0.7,1.6l0,0c0,0.7-0.3,1.2-0.7,1.6L19.2,38.4
			c-0.4,0.4-1.1,0.7-1.6,0.7s-1.2-0.3-1.6-0.7L3.4,26c-0.5-0.4-0.8-1-0.8-1.6c0-0.7,0.3-1.2,0.7-1.6l3.4-3.6
			c0.4-0.4,1.1-0.7,1.6-0.7c0.7,0,1.2,0.3,1.6,0.7l7.4,7.4L33.8,10C34.4,9.6,34.9,9.4,35.6,9.4 M35.6,8c-1,0-1.9,0.4-2.7,1.1
			L17.5,24.6l-6.4-6.4C10.4,17.5,9.4,17,8.3,17c-1,0-1.9,0.4-2.7,1.1l-3.3,3.4c-0.7,0.7-1.1,1.6-1.1,2.7c0,1,0.4,1.9,1.1,2.7
			l12.5,12.5c0.7,0.7,1.6,1.1,2.7,1.1s1.9-0.4,2.7-1.1l21.5-21.7c0.7-0.7,1.1-1.6,1.1-2.7v-1.4h-0.3c-0.1-0.5-0.4-1-0.8-1.4L38.4,9
			C37.7,8.4,36.7,8,35.6,8L35.6,8z"/>
	</g>
</g>
</svg>
