<?xml version="1.0" encoding="utf-8"?>
<!-- Generated by IcoMoon.io -->
<!DOCTYPE svg PUBLIC "-//W3C//DTD SVG 1.1//EN" "http://www.w3.org/Graphics/SVG/1.1/DTD/svg11.dtd">
<svg version="1.1" xmlns="http://www.w3.org/2000/svg" xmlns:xlink="http://www.w3.org/1999/xlink" width="36" height="36" viewBox="0 0 36 36">
<path d="M18 3c-8.287 0-15 6.712-15 15s6.712 15 15 15 15-6.712 15-15-6.712-15-15-15zM18 7.5c2.482 0 4.5 2.018 4.5 4.5 0 2.49-2.018 4.5-4.5 4.5s-4.5-2.010-4.5-4.5c0-2.482 2.018-4.5 4.5-4.5zM18 28.8c-3.758 0-7.058-1.92-9-4.83 0.038-2.977 6.008-4.62 9-4.62s8.955 1.643 9 4.62c-1.942 2.91-5.242 4.83-9 4.83z" fill="#444444"></path>
</svg>
