
<svg version="1.1" id="Layer_1" xmlns="http://www.w3.org/2000/svg" xmlns:xlink="http://www.w3.org/1999/xlink" x="0px" y="0px"
	 viewBox="0 0 60 60" enable-background="new 0 0 60 60" xml:space="preserve">
<path fill="#444444" d="M19.1,26.7v6.5c0,0.9-0.2,1.7-0.9,2.4c-0.7,0.7-1.5,0.9-2.4,0.9H9.3c-0.9,0-1.7-0.2-2.4-0.9
	C6.2,35,6,34.1,6,33.3v-6.5c0-0.9,0.2-1.7,0.9-2.4c0.7-0.7,1.5-0.9,2.4-0.9h6.5c0.9,0,1.7,0.2,2.4,0.9C18.9,25,19.1,25.9,19.1,26.7z
	 M36.5,26.7v6.5c0,0.9-0.2,1.7-0.9,2.4c-0.7,0.7-1.5,0.9-2.4,0.9h-6.5c-0.9,0-1.7-0.2-2.4-0.9c-0.7-0.7-0.9-1.5-0.9-2.4v-6.5
	c0-0.9,0.2-1.7,0.9-2.4c0.7-0.7,1.5-0.9,2.4-0.9h6.5c0.9,0,1.7,0.2,2.4,0.9C36.3,25,36.5,25.9,36.5,26.7z M54,26.7v6.5
	c0,0.9-0.2,1.7-0.9,2.4c-0.7,0.7-1.5,0.9-2.4,0.9h-6.5c-0.9,0-1.7-0.2-2.4-0.9c-0.7-0.7-0.9-1.5-0.9-2.4v-6.5c0-0.9,0.2-1.7,0.9-2.4
	c0.7-0.7,1.5-0.9,2.4-0.9h6.5c0.9,0,1.7,0.2,2.4,0.9C53.8,25,54,25.9,54,26.7z"/>
</svg>
