<svg version="1.1" id="Layer_1" xmlns="http://www.w3.org/2000/svg" xmlns:xlink="http://www.w3.org/1999/xlink" x="0px" y="0px"
	 viewBox="0 0 61.4 8.7" enable-background="new 0 0 61.4 8.7" xml:space="preserve">
<g fill="#ffffff">
	<path d="M3.7,8.6H0V0.2h3.3c0.6,0,1.1,0.1,1.5,0.2c0.4,0.1,0.7,0.3,0.9,0.6C6,1.4,6.2,1.9,6.2,2.4c0,0.7-0.2,1.1-0.6,1.5
		C5.4,4,5.3,4.1,5.3,4.1C5.2,4.1,5.1,4.2,5,4.2c0.5,0.1,0.9,0.3,1.2,0.7c0.3,0.4,0.5,0.8,0.5,1.3c0,0.6-0.2,1.1-0.6,1.5
		C5.6,8.3,4.8,8.6,3.7,8.6z M1.9,3.6h0.9c0.5,0,0.9-0.1,1.2-0.2c0.3-0.1,0.4-0.4,0.4-0.7c0-0.4-0.1-0.6-0.3-0.7S3.3,1.8,2.8,1.8H1.9
		V3.6z M1.9,7h1.3c0.5,0,0.9-0.1,1.2-0.2C4.6,6.7,4.8,6.4,4.8,6c0-0.4-0.1-0.6-0.4-0.8C4.1,5.1,3.6,5.1,3,5.1H1.9V7z"/>
	<path d="M14.3,0.2v1.7h-4.2v1.7h3.8v1.6h-3.8v1.7h4.3v1.7H8.3V0.2H14.3z" />
	<path d="M22.2,0.2v1.7H18v1.7h3.8v1.6H18v1.7h4.3v1.7h-6.2V0.2H22.2z"/>
	<path d="M30.8,3c0,1.3-0.5,2.2-1.6,2.6l2.1,3H29l-1.9-2.7h-1.3v2.7H24V0.2h3.2c1.3,0,2.2,0.2,2.8,0.7S30.8,2,30.8,3z M28.5,4
		c0.2-0.2,0.3-0.5,0.3-1c0-0.5-0.1-0.8-0.4-0.9c-0.2-0.2-0.7-0.3-1.3-0.3h-1.4v2.5h1.4C27.8,4.3,28.3,4.2,28.5,4z"/>
	<path d="M38.4,0.2v1.6h-3.9v1.8h3.7v1.6h-3.7v3.3h-1.9V0.2H38.4z"/>
	<path d="M46.1,0.2v1.7h-4.2v1.7h3.8v1.6h-3.8v1.7h4.3v1.7H40V0.2H46.1z"/>
	<path d="M49.8,1.9c-0.2,0.1-0.3,0.3-0.3,0.6s0.1,0.4,0.3,0.6c0.2,0.1,0.7,0.3,1.5,0.5c0.8,0.2,1.4,0.5,1.9,0.9
		c0.4,0.4,0.7,1,0.7,1.7S53.7,7.5,53.1,8c-0.6,0.5-1.3,0.7-2.2,0.7c-1.3,0-2.5-0.5-3.6-1.5l1.1-1.4C49.3,6.6,50.1,7,50.9,7
		c0.3,0,0.6-0.1,0.8-0.2C51.9,6.6,52,6.5,52,6.2s-0.1-0.5-0.3-0.6c-0.2-0.1-0.6-0.3-1.2-0.5c-1-0.2-1.7-0.5-2.1-0.9
		c-0.5-0.4-0.7-1-0.7-1.8s0.3-1.4,0.9-1.8C49.1,0.2,49.8,0,50.6,0c0.6,0,1.1,0.1,1.7,0.3c0.6,0.2,1,0.5,1.5,0.8l-0.9,1.4
		c-0.7-0.6-1.5-0.8-2.3-0.8C50.3,1.6,50,1.7,49.8,1.9z"/>
	<path d="M59,1.8v6.8h-1.9V1.8h-2.4V0.2h6.6v1.6H59z"/>
</g>
</svg>
