<?xml version="1.0" encoding="utf-8"?>
<!-- Generator: Adobe Illustrator 18.1.1, SVG Export Plug-In . SVG Version: 6.00 Build 0)  -->
<!DOCTYPE svg PUBLIC "-//W3C//DTD SVG 1.1//EN" "http://www.w3.org/Graphics/SVG/1.1/DTD/svg11.dtd">
<svg version="1.1" id="Layer_1" xmlns="http://www.w3.org/2000/svg" xmlns:xlink="http://www.w3.org/1999/xlink" x="0px" y="0px"
	 viewBox="0 0 190 181" enable-background="new 0 0 190 181" xml:space="preserve">
<g>
	<path fill="#FFFFFF" d="M90.6,11.1c2.4-4.9,6.4-4.9,8.9,0L119,50.8c2.4,4.9,8.9,9.6,14.3,10.4l43.8,6.4c5.4,0.8,6.7,4.6,2.7,8.4
		l-31.7,30.9c-3.9,3.8-6.4,11.4-5.5,16.8l7.5,43.6c0.9,5.4-2.3,7.8-7.2,5.2l-39.2-20.6c-4.9-2.6-12.8-2.6-17.7,0L47,172.5
		c-4.9,2.6-8.1,0.2-7.2-5.2l7.5-43.6c0.9-5.4-1.5-13-5.5-16.8L10.2,76c-3.9-3.8-2.7-7.6,2.7-8.4l43.8-6.4
		c5.4-0.8,11.9-5.5,14.3-10.4L90.6,11.1z"/>
</g>
</svg>
