<svg xmlns="http://www.w3.org/2000/svg"><symbol id="svg--icon--bottles" viewBox="-420 -420 900 900"><path d="M-176 148.2c0-184.9 19-197.3 48.2-223.3-18.8-64.5-32.2-241.9-33.7-245-1.8-3.7-15.8-7.4-45.5-7.4s-43.8 3.7-45.5 7.4c-1.8 3.7-19.7 244.9-43.5 266.6-23.8 21.7-39.6 26.9-39.6 174.7V298c0 20.1-8 63.2 112.4 63.2h32.5c5.2 0 10.1-.1 14.8-.2-.1-22.5-.1-61.2-.1-212.8zM236 149.4c0-184.9-19-197.3-48.2-223.3 18.8-64.5 32.2-241.9 33.7-245 1.8-3.7 15.8-7.4 45.5-7.4s43.8 3.7 45.5 7.4c1.8 3.7 19.7 244.9 43.5 266.6 23.8 21.7 39.6 26.9 39.6 174.7v176.8c0 20.1 8 63.2-112.4 63.2h-32.5c-5.2 0-10.1-.1-14.8-.2.1-22.5.1-61.2.1-212.8zM9.3 475.5c-155.8 0-145.4-55.7-145.4-81.7V165.1s20.4-198 51.2-226S-30.8-401-28.6-405.8s20.4-9.6 58.9-9.6 56.6 4.8 58.9 9.6C91.5-401.1 114.7-89 145.5-61s51.2 34.8 51.2 226v228.7s10.4 81.7-145.4 81.7h-42z"/></symbol><symbol id="svg--icon--checkmark" viewBox="0 0 28 28"><path d="M26.11 8.844q0 .625-.44 1.062L12.234 23.344q-.438.438-1.062.438t-1.06-.438l-7.782-7.78q-.438-.44-.438-1.063t.438-1.06l2.125-2.126q.438-.438 1.062-.438t1.062.438l4.594 4.61L21.42 5.656q.44-.438 1.063-.438t1.062.437l2.125 2.125q.438.437.438 1.062z"/></symbol><symbol id="svg--icon--close" viewBox="0 0 20 20"><path d="M18.7 15.7c0-.3-.1-.6-.4-.9L13.6 10l4.8-4.8c.2-.2.4-.5.4-.9s-.1-.7-.4-.9l-1.8-1.8c-.2-.2-.6-.4-.9-.4-.3 0-.6.1-.9.4L10 6.4 5.2 1.6c-.3-.2-.6-.3-.9-.3-.4 0-.7.1-.9.4L1.6 3.4c-.2.2-.3.5-.3.9 0 .3.1.6.4.9L6.4 10l-4.8 4.8c-.2.2-.4.5-.4.9s.1.7.4.9l1.8 1.8c.2.2.6.4.9.4.3 0 .6-.1.9-.4l4.8-4.8 4.8 4.8c.2.2.5.4.9.4s.7-.1.9-.4l1.8-1.8c.2-.2.3-.5.3-.9z"/></symbol><symbol id="svg--icon--globe" viewBox="0 0 28 28"><path d="M12 2q3.266 0 6.023 1.61t4.367 4.366T24 14t-1.61 6.022-4.367 4.367T12 25.997t-6.023-1.61-4.367-4.366T0 14t1.61-6.024T5.977 3.61 12 2zm4.28 8.14q-.03.017-.147.15t-.21.147q.03 0 .07-.078t.077-.173.055-.11q.094-.108.344-.233.218-.094.81-.187.532-.125.798.172-.03-.032.148-.204t.227-.187q.047-.032.234-.07t.234-.118l.032-.344q-.187.016-.273-.11t-.103-.327q0 .032-.094.126 0-.11-.07-.125t-.18.017-.14.016q-.157-.047-.235-.117t-.125-.258-.063-.234q-.03-.078-.148-.164t-.148-.164q-.016-.03-.04-.086t-.046-.102-.063-.086-.086-.04-.11.08-.117.155-.07.078q-.047-.03-.094-.023t-.07.016-.07.047-.08.055q-.046.03-.132.047t-.133.03q.234-.077-.016-.17-.157-.064-.25-.048.14-.064.116-.188t-.133-.22h.078q-.015-.062-.132-.132t-.273-.133-.203-.094q-.125-.078-.53-.148t-.517-.008q-.078.094-.07.164t.063.22.055.195q.016.094-.086.203t-.102.187q0 .11.22.242t.155.336q-.047.125-.25.25t-.25.187q-.078.125-.023.29t.164.257q.032.03.024.063t-.055.07-.087.063-.102.055l-.046.03q-.172.08-.32-.093t-.21-.406q-.11-.392-.25-.47-.36-.125-.454.016-.078-.203-.64-.406-.392-.14-.907-.063.094-.016 0-.234-.11-.234-.297-.187.047-.094.063-.273t.015-.21q.047-.204.187-.36.016-.016.11-.133t.147-.21.007-.095q.547.063.78-.172.08-.078.18-.266t.165-.266q.14-.093.22-.085t.226.086.227.08q.22.015.242-.173t-.117-.313q.187.016.047-.266-.078-.11-.125-.14-.187-.064-.422.077-.125.063.03.125-.015-.016-.147.164t-.258.273-.25-.078q-.016-.017-.086-.212t-.15-.21q-.124 0-.25.233.048-.124-.17-.233t-.376-.125q.297-.187-.125-.422-.11-.063-.32-.078t-.306.063q-.078.11-.086.18t.078.125.164.086.18.063.133.046q.22.156.125.22-.03.015-.133.054t-.18.07-.094.063q-.046.063 0 .22t-.03.218q-.078-.077-.14-.272t-.11-.258q.11.14-.39.094l-.157-.016q-.063 0-.25.03t-.32.017-.21-.125q-.064-.125 0-.313.015-.063.062-.03-.063-.048-.172-.15t-.156-.132q-.72.234-1.47.64.095.017.188-.015.078-.03.203-.102t.156-.086q.53-.22.656-.11l.078-.077q.22.25.313.39-.108-.062-.468-.015-.313.094-.344.187.11.187.078.28-.063-.046-.18-.155T7.78 5.3t-.235-.078q-.25 0-.344.016-2.28 1.25-3.67 3.47.108.108.186.124.063.016.078.14t.04.173.18-.047q.14.125.046.297.016-.016.688.422.297.266.328.328.047.172-.156.28-.016-.03-.14-.14t-.142-.063q-.047.078.008.29t.164.194q-.11 0-.148.25t-.04.555-.015.368l.03.016q-.046.187.087.54t.336.304q-.203.047.313.672.094.125.125.14.047.032.187.118t.234.156.155.164q.063.078.156.352t.22.367q-.03.094.148.313t.164.36q-.016 0-.04.015t-.038.016q.047.11.242.22t.242.203q.016.047.03.156t.048.17.125.032q.032-.313-.374-.97-.234-.39-.266-.452-.047-.078-.086-.242t-.07-.227q.03 0 .094.024t.133.055.118.062.03.047q-.046.108.032.272t.187.29.266.296.187.203q.094.095.22.306t0 .21q.14 0 .312.157t.266.313q.078.125.125.406t.078.375q.032.11.134.21t.195.15l.25.124.202.11q.078.03.29.164t.335.18q.156.063.25.063t.227-.04.21-.054q.235-.03.454.234t.328.328q.562.297.86.172-.032.016.007.117t.125.242.14.227.087.133q.078.094.28.234t.282.234q.094-.063.11-.14-.048.124.108.312t.28.156q.22-.047.22-.5-.484.234-.766-.28 0-.017-.04-.087t-.063-.133-.04-.133 0-.118.08-.047q.14 0 .155-.055t-.03-.195-.064-.203q-.016-.125-.172-.313t-.187-.235q-.08.14-.25.125t-.25-.14q0 .015-.024.085t-.023.102q-.203 0-.234-.016.015-.046.038-.272t.055-.352q.016-.063.086-.187t.116-.228.063-.195-.07-.148-.274-.04q-.297.016-.406.313-.016.047-.047.164t-.078.18-.14.11q-.11.046-.376.03t-.376-.078q-.203-.126-.352-.454t-.148-.578q0-.156.04-.414t.046-.39-.086-.384q.047-.03.14-.148t.157-.164q.032-.016.07-.023t.07 0 .064-.023.047-.094q-.015-.016-.062-.047-.047-.046-.063-.046.11.047.445-.023t.43.024q.234.172.344-.03 0-.017-.04-.15t-.007-.21q.078.422.453.14.047.048.242.08t.273.077q.047.032.11.087t.085.07.078-.008.133-.103q.157.22.188.375.172.625.297.688.11.047.172.03t.07-.147 0-.22-.023-.194l-.016-.126v-.28l-.016-.126q-.234-.047-.29-.187t.024-.288.234-.29q.016-.015.125-.054t.242-.102.195-.125q.328-.296.234-.546.11 0 .172-.14-.016 0-.078-.048t-.117-.078-.07-.03q.14-.08.03-.25.08-.048.118-.173t.118-.156q.14.186.328.03.11-.125.016-.25.078-.11.32-.164t.29-.148q.108.03.124-.03t.016-.188.047-.187q.062-.078.233-.14t.203-.08l.266-.17q.047-.064 0-.064.28.03.484-.173.156-.172-.094-.313.047-.094-.047-.148t-.234-.086q.048-.016.18-.008t.165-.023q.234-.157-.11-.25-.265-.08-.67.186zm-2.546 13.704q3.22-.562 5.484-2.953-.047-.046-.195-.07t-.195-.054q-.28-.11-.375-.125.016-.108-.04-.202t-.124-.14-.196-.126-.172-.11q-.03-.03-.11-.093t-.108-.087-.117-.07-.133-.03-.156.015l-.047.016q-.046.016-.085.04t-.086.046-.064.047 0 .04q-.328-.267-.562-.345-.078-.016-.172-.086t-.164-.11-.156-.022-.18.11q-.078.077-.094.233t-.03.203q-.11-.078 0-.273t.03-.29q-.047-.093-.164-.07t-.187.07-.18.134-.14.103-.134.086-.133.116q-.047.063-.094.187t-.078.172q-.03-.063-.18-.102t-.148-.086q.03.156.063.547t.078.594q.11.484-.186.75-.422.39-.453.625-.062.344.188.406 0 .108-.125.32t-.11.335q0 .094.032.25z"/></symbol><symbol id="svg--icon--hads" viewBox="0 0 60 60"><path d="M28.5 47.6c0 1.1-.4 2.1-1.2 2.9-.8.8-1.8 1.2-2.9 1.2-1.1 0-2.1-.4-2.9-1.2-.8-.8-1.2-1.8-1.2-2.9 0-1.1.4-2.1 1.2-2.9.8-.8 1.8-1.2 2.9-1.2 1.1 0 2.1.4 2.9 1.2.8.9 1.2 1.8 1.2 2.9zm0-11c0 1.1-.4 2.1-1.2 2.9-.8.8-1.8 1.2-2.9 1.2-1.1 0-2.1-.4-2.9-1.2-.8-.8-1.2-1.8-1.2-2.9s.4-2.1 1.2-2.9c.8-.8 1.8-1.2 2.9-1.2 1.1 0 2.1.4 2.9 1.2.8.9 1.2 1.8 1.2 2.9zm30.1 9v4.1c0 .1 0 .4-.1.5-.1.1-.3.1-.5.1H32c-.1 0-.4 0-.5-.1-.1-.1-.1-.3-.1-.5v-4.1c0-.1 0-.4.1-.5.1-.1.3-.1.5-.1h26c.1 0 .4 0 .5.1.1 0 .1.3.1.5zM28.5 25.7c0 1.1-.4 2.1-1.2 2.9s-1.8 1.2-2.9 1.2c-1.1 0-2.1-.4-2.9-1.2-.8-.8-1.2-1.8-1.2-2.9s.4-2.1 1.2-2.9 1.8-1.2 2.9-1.2c1.1 0 2.1.4 2.9 1.2.8.8 1.2 1.8 1.2 2.9zm30.1 8.9v4.1c0 .1 0 .4-.1.5-.1.1-.3.1-.5.1H32c-.1 0-.4 0-.5-.1s-.1-.3-.1-.5v-4.1c0-.1 0-.4.1-.5.1-.1.3-.1.5-.1h26c.1 0 .4 0 .5.1.1.1.1.4.1.5zm0-11v4.1c0 .1 0 .4-.1.5-.1.1-.3.1-.5.1H32c-.1 0-.4 0-.5-.1s-.1-.3-.1-.5v-4.1c0-.1 0-.4.1-.5.1-.1.3-.1.5-.1h26c.1 0 .4 0 .5.1 0 .2.1.4.1.5z"/><path d="M17.5 39.9c-.8 0-1.6-.3-2.2-1L2.8 26.5c-.5-.5-1-1.4-1-2.2s.3-1.6 1-2.2l3.4-3.4c.5-.5 1.4-1 2.2-1 .8 0 1.6.3 2.2 1l6.9 6.9 15.9-16c.5-.5 1.4-1 2.2-1 .8 0 1.6.3 2.2 1l3.4 3.4c.5.5 1 1.4 1 2.2 0 .8-.3 1.6-1 2.2L19.7 39c-.7.5-1.4.9-2.2.9z"/><path d="M35.6 9.4c.7 0 1.2.3 1.6.7l3.6 3.4c.4.4.7 1.1.7 1.6 0 .7-.3 1.2-.7 1.6L19.2 38.4c-.4.4-1.1.7-1.6.7s-1.2-.3-1.6-.7L3.4 26c-.5-.4-.8-1-.8-1.6 0-.7.3-1.2.7-1.6l3.4-3.6c.4-.4 1.1-.7 1.6-.7.7 0 1.2.3 1.6.7l7.4 7.4L33.8 10c.6-.4 1.1-.6 1.8-.6m0-1.4c-1 0-1.9.4-2.7 1.1L17.5 24.6l-6.4-6.4c-.7-.7-1.7-1.2-2.8-1.2-1 0-1.9.4-2.7 1.1l-3.3 3.4c-.7.7-1.1 1.6-1.1 2.7 0 1 .4 1.9 1.1 2.7l12.5 12.5c.7.7 1.6 1.1 2.7 1.1s1.9-.4 2.7-1.1l21.5-21.7c.7-.7 1.1-1.6 1.1-2.7v-1.4h-.3c-.1-.5-.4-1-.8-1.4L38.4 9c-.7-.6-1.7-1-2.8-1z"/></symbol><symbol id="svg--icon--more" viewBox="0 0 60 60"><path d="M19.1 26.7v6.5c0 .9-.2 1.7-.9 2.4s-1.5.9-2.4.9H9.3c-.9 0-1.7-.2-2.4-.9-.7-.6-.9-1.5-.9-2.3v-6.5c0-.9.2-1.7.9-2.4s1.5-.9 2.4-.9h6.5c.9 0 1.7.2 2.4.9.7.6.9 1.5.9 2.3zm17.4 0v6.5c0 .9-.2 1.7-.9 2.4s-1.5.9-2.4.9h-6.5c-.9 0-1.7-.2-2.4-.9s-.9-1.5-.9-2.4v-6.5c0-.9.2-1.7.9-2.4s1.5-.9 2.4-.9h6.5c.9 0 1.7.2 2.4.9s.9 1.6.9 2.4zm17.5 0v6.5c0 .9-.2 1.7-.9 2.4s-1.5.9-2.4.9h-6.5c-.9 0-1.7-.2-2.4-.9s-.9-1.5-.9-2.4v-6.5c0-.9.2-1.7.9-2.4s1.5-.9 2.4-.9h6.5c.9 0 1.7.2 2.4.9s.9 1.6.9 2.4z"/></symbol><symbol id="svg--icon--remove" viewBox="0 0 28 28"><path d="M17.953 17.53q0-.405-.297-.702L14.828 14l2.828-2.828q.297-.297.297-.703 0-.423-.297-.72L16.25 8.344q-.297-.297-.72-.297-.405 0-.702.297L12 11.172 9.172 8.344q-.297-.297-.703-.297-.423 0-.72.297L6.344 9.75q-.297.297-.297.72 0 .405.297.702L9.172 14l-2.828 2.828q-.297.297-.297.703 0 .423.297.72l1.406 1.406q.297.297.72.297.405 0 .702-.297L12 16.828l2.828 2.828q.297.297.703.297.423 0 .72-.297l1.406-1.406q.297-.297.297-.72zM24 14q0 3.266-1.61 6.023t-4.366 4.367T12 26 5.98 24.39 1.61 20.023.003 14t1.61-6.023T5.977 3.61 12 2t6.024 1.61 4.367 4.367T24 14z"/></symbol><symbol id="svg--icon--search" viewBox="0 0 26 28"><path d="M18 13q0-2.89-2.055-4.945T11 6 6.055 8.055 4 13t2.055 4.945T11 20t4.945-2.055T18 13zm8 13q0 .812-.594 1.406T24 28q-.844 0-1.406-.594l-5.36-5.344Q14.44 24 11.002 24q-2.233 0-4.272-.868t-3.516-2.344-2.344-3.516T0 13 .87 8.725 3.212 5.21t3.516-2.344T11 2t4.274.866T18.79 5.21t2.344 3.516T22 13q0 3.436-1.936 6.233l5.36 5.36q.577.577.577 1.405z"/></symbol><symbol id="svg--icon--star" viewBox="-33 1 60 60"><path d="M22 24.5c0 .4-.3.9-.8 1.4L10.3 36.6l2.6 15v.6c0 .4-.1.8-.3 1.1-.2.3-.5.4-.9.4s-.8-.1-1.2-.4l-13.5-7-13.5 7.1c-.4.2-.8.4-1.2.4-.4 0-.7-.1-.9-.4-.2-.3-.3-.6-.3-1.1 0-.1 0-.3.1-.6l2.6-15-11-10.7c-.5-.5-.8-1-.8-1.4 0-.7.6-1.2 1.7-1.4l15.1-2.2 6.8-13.7c.3-.8.8-1.2 1.4-1.2.6 0 1.1.4 1.5 1.2L5.2 21l15.1 2.2c1.1.1 1.7.6 1.7 1.3z"/></symbol><symbol id="svg--icon--user" viewBox="0 0 22 28"><path d="M22 21.953q0 1.875-1.14 2.96T17.827 26H4.172q-1.89 0-3.03-1.086T0 21.954q0-.83.055-1.618t.22-1.703.413-1.695.672-1.523.97-1.266 1.335-.837T5.407 13q.14 0 .656.336t1.164.75 1.687.75 2.086.336 2.086-.336 1.687-.75 1.164-.75.656-.336q.953 0 1.742.313t1.336.836.97 1.265.672 1.523.414 1.695.22 1.703.054 1.617zM17 8q0 2.484-1.758 4.242T11 14t-4.242-1.758T5 8t1.758-4.242T11 2t4.242 1.758T17 8z"/></symbol><symbol id="svg--logo" viewBox="0 0 61.4 8.7"><path d="M3.7 8.6H0V.2h3.3c.6 0 1.1.1 1.5.2.4.1.7.3.9.6.3.4.5.9.5 1.4 0 .7-.2 1.1-.6 1.5-.2.1-.3.2-.3.2-.1 0-.2.1-.3.1.5.1.9.3 1.2.7.3.4.5.8.5 1.3 0 .6-.2 1.1-.6 1.5-.5.6-1.3.9-2.4.9zm-1.8-5h.9c.5 0 .9-.1 1.2-.2.3-.1.4-.4.4-.7 0-.4-.1-.6-.3-.7s-.8-.2-1.3-.2h-.9v1.8zm0 3.4h1.3c.5 0 .9-.1 1.2-.2.2-.1.4-.4.4-.8s-.1-.6-.4-.8c-.3-.1-.8-.1-1.4-.1H1.9V7zM14.3.2v1.7h-4.2v1.7h3.8v1.6h-3.8v1.7h4.3v1.7H8.3V.2h6zM22.2.2v1.7H18v1.7h3.8v1.6H18v1.7h4.3v1.7h-6.2V.2h6.1zM30.8 3c0 1.3-.5 2.2-1.6 2.6l2.1 3H29l-1.9-2.7h-1.3v2.7H24V.2h3.2c1.3 0 2.2.2 2.8.7s.8 1.1.8 2.1zm-2.3 1c.2-.2.3-.5.3-1s-.1-.8-.4-.9c-.2-.2-.7-.3-1.3-.3h-1.4v2.5h1.4c.7 0 1.2-.1 1.4-.3zM38.4.2v1.6h-3.9v1.8h3.7v1.6h-3.7v3.3h-1.9V.2h5.8zM46.1.2v1.7h-4.2v1.7h3.8v1.6h-3.8v1.7h4.3v1.7H40V.2h6.1zM49.8 1.9c-.2.1-.3.3-.3.6s.1.4.3.6c.2.1.7.3 1.5.5s1.4.5 1.9.9c.4.4.7 1 .7 1.7s-.2 1.3-.8 1.8c-.6.5-1.3.7-2.2.7-1.3 0-2.5-.5-3.6-1.5l1.1-1.4c.9.8 1.7 1.2 2.5 1.2.3 0 .6-.1.8-.2.2-.2.3-.3.3-.6s-.1-.5-.3-.6c-.2-.1-.6-.3-1.2-.5-1-.2-1.7-.5-2.1-.9-.5-.4-.7-1-.7-1.8S48 1 48.6.6c.5-.4 1.2-.6 2-.6.6 0 1.1.1 1.7.3.6.2 1 .5 1.5.8l-.9 1.4c-.7-.6-1.5-.8-2.3-.8-.3-.1-.6 0-.8.2zM59 1.8v6.8h-1.9V1.8h-2.4V.2h6.6v1.6H59z"/></symbol></svg>