
<svg version="1.1" id="Layer_1" xmlns="http://www.w3.org/2000/svg" xmlns:xlink="http://www.w3.org/1999/xlink" x="0px" y="0px"
	 viewBox="-33 1 60 60" enable-background="new -33 1 60 60" xml:space="preserve">
<path d="M22,24.5c0,0.4-0.3,0.9-0.8,1.4L10.3,36.6l2.6,15c0,0.1,0,0.3,0,0.6c0,0.4-0.1,0.8-0.3,1.1
	c-0.2,0.3-0.5,0.4-0.9,0.4c-0.4,0-0.8-0.1-1.2-0.4L-3,46.3l-13.5,7.1c-0.4,0.2-0.8,0.4-1.2,0.4c-0.4,0-0.7-0.1-0.9-0.4
	c-0.2-0.3-0.3-0.6-0.3-1.1c0-0.1,0-0.3,0.1-0.6l2.6-15L-27.2,26c-0.5-0.5-0.8-1-0.8-1.4c0-0.7,0.6-1.2,1.7-1.4l15.1-2.2l6.8-13.7
	C-4.1,6.5-3.6,6.1-3,6.1c0.6,0,1.1,0.4,1.5,1.2L5.2,21l15.1,2.2C21.4,23.3,22,23.8,22,24.5L22,24.5z"/>
</svg>
