
<svg version="1.1" id="Layer_1" xmlns="http://www.w3.org/2000/svg" xmlns:xlink="http://www.w3.org/1999/xlink" x="0px" y="0px"
	 viewBox="0 0 20 20" enable-background="new 0 0 20 20" xml:space="preserve">
<path d="M18.7,15.7c0-0.3-0.1-0.6-0.4-0.9L13.6,10l4.8-4.8c0.2-0.2,0.4-0.5,0.4-0.9c0-0.4-0.1-0.7-0.4-0.9l-1.8-1.8
	c-0.2-0.2-0.6-0.4-0.9-0.4c-0.3,0-0.6,0.1-0.9,0.4L10,6.4L5.2,1.6C4.9,1.4,4.6,1.3,4.3,1.3c-0.4,0-0.7,0.1-0.9,0.4L1.6,3.4
	C1.4,3.6,1.3,3.9,1.3,4.3c0,0.3,0.1,0.6,0.4,0.9L6.4,10l-4.8,4.8c-0.2,0.2-0.4,0.5-0.4,0.9c0,0.4,0.1,0.7,0.4,0.9l1.8,1.8
	c0.2,0.2,0.6,0.4,0.9,0.4c0.3,0,0.6-0.1,0.9-0.4l4.8-4.8l4.8,4.8c0.2,0.2,0.5,0.4,0.9,0.4c0.4,0,0.7-0.1,0.9-0.4l1.8-1.8
	C18.6,16.4,18.7,16.1,18.7,15.7z"/>
</svg>
