<svg version="1.1" id="Layer_2" xmlns="http://www.w3.org/2000/svg" xmlns:xlink="http://www.w3.org/1999/xlink" x="0px" y="0px"
	 viewBox="-420 -420 900 900" enable-background="new -420 -420 900 900" xml:space="preserve">
<g>
	<path d="M-176,148.2c0-184.9,19-197.3,48.2-223.3c-18.8-64.5-32.2-241.9-33.7-245c-1.8-3.7-15.8-7.4-45.5-7.4
		s-43.8,3.7-45.5,7.4c-1.8,3.7-19.7,244.9-43.5,266.6c-23.8,21.7-39.6,26.9-39.6,174.7s0,156.8,0,176.8c0,20.1-8,63.2,112.4,63.2
		h32.5c5.2,0,10.1-0.1,14.8-0.2C-176,338.5-176,299.8-176,148.2z"/>
	<path d="M236,149.4c0-184.9-19-197.3-48.2-223.3c18.8-64.5,32.2-241.9,33.7-245c1.8-3.7,15.8-7.4,45.5-7.4
		s43.8,3.7,45.5,7.4c1.8,3.7,19.7,244.9,43.5,266.6c23.8,21.7,39.6,26.9,39.6,174.7s0,156.8,0,176.8c0,20.1,8,63.2-112.4,63.2h-32.5
		c-5.2,0-10.1-0.1-14.8-0.2C236,339.7,236,301,236,149.4z"/>
	<path d="M9.3,475.5c-155.8,0-145.4-55.7-145.4-81.7s0-37.5,0-228.7s20.4-198,51.2-226s54.1-340.1,56.3-344.9
		s20.4-9.6,58.9-9.6s56.6,4.8,58.9,9.6C91.5-401.1,114.7-89,145.5-61s51.2,34.8,51.2,226s0,202.8,0,228.7s10.4,81.7-145.4,81.7H9.3z
		"/>
</g>
</svg>
